<svg width="693" height="439" viewBox="0 0 693 439" fill="none" xmlns="http://www.w3.org/2000/svg">
<mask id="mask0_65_349" style="mask-type:alpha" maskUnits="userSpaceOnUse" x="0" y="0" width="693" height="439">
<rect width="693" height="439" fill="url(#paint0_linear_65_349)"/>
</mask>
<g mask="url(#mask0_65_349)">
<g filter="url(#filter0_d_65_349)">
<path fill-rule="evenodd" clip-rule="evenodd" d="M204.603 98.2332C206.136 98.1875 207.393 99.4304 207.393 100.963V119.37C207.393 121.569 209.839 122.887 211.675 121.676L280.343 76.4089C282.051 75.2829 281.985 72.7554 280.22 71.7202L211.553 31.4402C209.711 30.3601 207.393 31.6879 207.393 33.8228V52.4331C207.393 53.9531 206.154 55.1852 204.635 55.2182C116.144 57.1407 45 129.476 45 218.428C45 308.589 118.089 381.678 208.249 381.678C298.41 381.678 371.499 308.589 371.499 218.428C371.499 152.016 425.336 98.179 491.748 98.179C558.16 98.179 611.998 152.016 611.998 218.428C611.998 283.914 559.651 337.174 494.519 338.647C492.994 338.681 491.748 337.441 491.748 335.916V316.324C491.748 314.189 489.43 312.861 487.589 313.941L418.921 354.221C417.156 355.256 417.09 357.784 418.798 358.91L487.466 404.177C489.302 405.388 491.748 404.071 491.748 401.871V384.44C491.748 382.915 492.996 381.68 494.521 381.655C583.402 380.175 654.998 307.662 654.998 218.428C654.998 128.268 581.909 55.179 491.748 55.179C401.588 55.179 328.499 128.268 328.499 218.428C328.499 284.84 274.661 338.678 208.249 338.678C141.838 338.678 88 284.84 88 218.428C88 153.236 139.878 100.161 204.603 98.2332ZM517.325 189.04C518.516 188.087 520.255 188.28 521.208 189.471L544.149 218.148L545.85 220.275C546.657 221.283 546.657 222.717 545.85 223.726L544.149 225.852L521.208 254.529C520.255 255.72 518.516 255.913 517.325 254.96L512.008 250.707C510.817 249.754 510.624 248.016 511.577 246.824L530.056 223.726C530.863 222.717 530.863 221.283 530.056 220.275L511.577 197.176C510.624 195.985 510.817 194.247 512.008 193.294L517.325 189.04ZM435.851 218.148L458.792 189.471C459.745 188.28 461.484 188.087 462.675 189.04L467.992 193.294C469.183 194.247 469.376 195.985 468.423 197.176L449.944 220.275C449.137 221.283 449.137 222.717 449.944 223.726L468.423 246.824C469.376 248.016 469.183 249.754 467.992 250.707L462.675 254.96C461.484 255.913 459.745 255.72 458.792 254.529L435.851 225.852L434.15 223.726C433.343 222.717 433.343 221.283 434.15 220.275L435.851 218.148ZM168.5 210.5C168.5 196.358 168.5 189.287 172.893 184.894L172.894 184.893C173.282 184.505 173.692 184.151 174.125 183.828C178.593 180.5 185.609 180.5 198.5 180.5H198.5H213.5C227.642 180.5 234.713 180.5 239.107 184.893C240.192 185.979 241.01 187.228 241.625 188.707C243.383 192.932 243.493 199.031 243.5 208.55C243.5 209.185 243.5 209.835 243.5 210.5V225.5C243.5 236.107 243.5 242.736 241.647 247.241C241.029 248.743 240.205 250.008 239.107 251.107C234.713 255.5 227.642 255.5 213.5 255.5H198.5C184.358 255.5 177.287 255.5 172.893 251.107C168.5 246.713 168.5 239.642 168.5 225.5V210.5ZM176 225.5C176 226.886 177.673 227.577 178.653 226.597L181.287 223.963C186.333 218.917 188.856 216.394 191.589 216.163C192.965 216.047 194.347 216.313 195.581 216.932C198.033 218.161 199.439 221.441 202.25 228L202.25 228C202.25 228 202.25 228 202.25 228V228L202.45 228.467C203.673 231.321 204.285 232.747 205.291 233.37C206.074 233.855 207.007 234.034 207.913 233.875C209.079 233.671 210.177 232.573 212.372 230.378L212.796 229.954L212.796 229.954C215.501 227.249 216.854 225.897 218.387 225.327C220.073 224.7 221.927 224.7 223.613 225.327C225.146 225.897 226.499 227.249 229.204 229.954L229.204 229.954L232.023 232.773C232.161 232.911 232.303 233.047 232.447 233.179C233.907 234.518 235.969 233.291 235.985 231.31C235.999 229.575 236 227.65 236 225.5V210.5C236 203.217 235.984 198.509 235.518 195.04C235.08 191.787 234.374 190.768 233.803 190.197C233.232 189.626 232.213 188.92 228.96 188.482C225.491 188.016 220.783 188 213.5 188H198.5C191.217 188 186.509 188.016 183.04 188.482C179.787 188.92 178.768 189.626 178.197 190.197C177.626 190.768 176.92 191.787 176.482 195.04C176.016 198.509 176 203.217 176 210.5V225.5V225.5ZM217.25 214.25C221.392 214.25 224.75 210.892 224.75 206.75C224.75 202.608 221.392 199.25 217.25 199.25C213.108 199.25 209.75 202.608 209.75 206.75C209.75 210.892 213.108 214.25 217.25 214.25Z" fill="url(#paint1_linear_65_349)"/>
</g>
</g>
<defs>
<filter id="filter0_d_65_349" x="31.189" y="31.0564" width="637.62" height="412.732" filterUnits="userSpaceOnUse" color-interpolation-filters="sRGB">
<feFlood flood-opacity="0" result="BackgroundImageFix"/>
<feColorMatrix in="SourceAlpha" type="matrix" values="0 0 0 0 0 0 0 0 0 0 0 0 0 0 0 0 0 0 127 0" result="hardAlpha"/>
<feOffset dy="25.34"/>
<feGaussianBlur stdDeviation="6.90549"/>
<feComposite in2="hardAlpha" operator="out"/>
<feColorMatrix type="matrix" values="0 0 0 0 0 0 0 0 0 0 0 0 0 0 0 0 0 0 0.2 0"/>
<feBlend mode="normal" in2="BackgroundImageFix" result="effect1_dropShadow_65_349"/>
<feBlend mode="normal" in="SourceGraphic" in2="effect1_dropShadow_65_349" result="shape"/>
</filter>
<linearGradient id="paint0_linear_65_349" x1="217.951" y1="264.526" x2="106.388" y2="394.531" gradientUnits="userSpaceOnUse">
<stop stop-color="#C4C4C4"/>
<stop offset="1" stop-color="#C4C4C4" stop-opacity="0"/>
</linearGradient>
<linearGradient id="paint1_linear_65_349" x1="655" y1="-20.9998" x2="176.908" y2="358.536" gradientUnits="userSpaceOnUse">
<stop stop-color="#FF8A8A"/>
<stop offset="0.5" stop-color="#FF6B6B"/>
<stop offset="1" stop-color="#4442B0"/>
</linearGradient>
</defs>
</svg>
