<svg width="408" height="305" viewBox="0 0 408 305" fill="none" xmlns="http://www.w3.org/2000/svg">
<g filter="url(#filter0_d_182_179)">
<path fill-rule="evenodd" clip-rule="evenodd" d="M299.714 9.49347C299.456 10.2146 299.92 10.9658 300.59 11.3378L344.659 35.8203C345.493 36.2838 346.507 36.2838 347.341 35.8203L391.41 11.3378C392.08 10.9658 392.544 10.2147 392.286 9.49347C391.603 7.58725 390.648 6.02094 389.314 4.68629C384.627 2.86102e-06 377.085 0 362 0H330C314.915 0 307.373 2.86102e-06 302.686 4.68629C301.352 6.02094 300.397 7.58724 299.714 9.49347ZM298.009 26.7051C298 28.3591 298 30.121 298 32V42.6667C298 57.7516 298 65.2941 302.686 69.9804C307.373 74.6667 314.915 74.6667 330 74.6667H362C377.085 74.6667 384.627 74.6667 389.314 69.9804C394 65.2941 394 57.7516 394 42.6667V32C394 30.121 394 28.3591 393.991 26.7051C393.98 24.6288 391.754 23.3491 389.939 24.3574L351.18 45.8899C347.959 47.6796 344.041 47.6796 340.82 45.8899L302.061 24.3574C300.246 23.3491 298.02 24.6288 298.009 26.7051ZM147.202 146.067L147.202 146.067C146.651 149.259 146.099 152.452 145.311 155.584C140.269 175.548 130.197 192.586 115.352 206.807C114.706 207.401 114.189 208.122 113.835 208.925C113.48 209.728 113.295 210.595 113.291 211.473C112.235 228.665 105.686 243.513 93.8267 255.965C92.9359 256.9 91.1146 257.676 89.9555 257.408C89.0591 257.214 88.1056 255.4 87.9 254.185C87.2131 250.148 86.6577 246.111 86.1023 242.075C85.8729 240.407 85.6436 238.74 85.4049 237.073C85.32 236.487 85.1949 235.909 85.0642 235.306C84.9843 234.937 84.5589 234.758 84.2373 234.956C79.4611 237.894 79.2739 237.707 74.9345 233.372L74.8991 233.336C64.9224 223.366 54.9438 213.399 44.9633 203.435C40.6373 199.108 40.6468 199.095 44.359 193.928C44.3612 193.925 44.3594 193.92 44.3556 193.92C43.5993 193.797 42.8636 193.674 42.141 193.553L42.1398 193.553L42.1393 193.553L42.139 193.553L42.1178 193.549C40.697 193.312 39.3269 193.082 37.9519 192.883C36.523 192.676 35.0911 192.483 33.6592 192.29L33.6581 192.289C30.6788 191.888 27.6991 191.486 24.7454 190.955C23.4322 190.71 21.5937 189.854 21.2397 188.844C20.8857 187.835 21.8106 185.958 22.7356 185.074C35.3768 173.095 50.3875 166.524 67.842 165.435C69.2925 165.31 70.6576 164.697 71.7131 163.695C88.5624 146.372 108.826 135.539 132.715 131.752C136.367 131.212 140.055 130.962 143.746 131.005C144.732 131.005 145.724 131.504 146.706 131.998C147.478 132.387 147.999 133.174 147.996 134.038L147.978 141.456C147.977 141.626 147.961 141.795 147.93 141.962C147.675 143.326 147.438 144.696 147.202 146.066L147.202 146.066L147.202 146.067ZM109.391 183.18C112.15 183.213 114.856 182.427 117.167 180.921C119.478 179.416 121.289 177.259 122.371 174.723C123.453 172.188 123.758 169.389 123.246 166.681C122.734 163.973 121.429 161.477 119.496 159.511C117.563 157.545 115.089 156.196 112.388 155.636C109.687 155.075 106.88 155.329 104.323 156.364C101.767 157.4 99.5752 159.17 98.0267 161.451C96.4782 163.732 95.6424 166.421 95.6252 169.177C95.6041 171 95.9439 172.81 96.6252 174.502C97.3064 176.195 98.3156 177.736 99.5948 179.037C100.874 180.338 102.398 181.374 104.079 182.085C105.76 182.796 107.566 183.168 109.391 183.18ZM16.8775 264.989C16.0444 264.978 15.2827 264.483 14.8642 263.762L14.8642 263.762C14.3529 262.882 13.8429 262.004 14.0455 261.338L14.3145 260.45C17.6209 249.535 20.9385 238.582 26.6753 228.625C31.8939 219.572 43.8043 217.536 52.0034 224.062C61.5271 231.637 60.6935 246.798 49.8051 252.177C43.3058 255.386 36.4703 257.921 29.6336 260.456L29.6334 260.456L29.6315 260.457C26.6251 261.572 23.6185 262.687 20.6402 263.859L18.2807 264.802C17.9536 264.933 17.6041 264.998 17.2519 264.993L16.8775 264.989Z" fill="url(#paint0_linear_182_179)"/>
</g>
<path d="M173.073 107.464C173.092 108.292 173.779 108.947 174.607 108.928C175.436 108.909 176.091 108.222 176.072 107.394L173.073 107.464ZM271.69 40.6728C272.335 40.1529 272.437 39.2086 271.917 38.5636L263.445 28.0531C262.925 27.4081 261.98 27.3067 261.335 27.8266C260.69 28.3465 260.589 29.2908 261.109 29.9358L268.64 39.2785L259.297 46.8094C258.652 47.3293 258.551 48.2736 259.071 48.9186C259.591 49.5636 260.535 49.665 261.18 49.1451L271.69 40.6728ZM176.551 101.257C176.682 100.439 176.124 99.67 175.306 99.5398C174.488 99.4095 173.719 99.9671 173.589 100.785L176.551 101.257ZM175.823 91.6542C175.568 92.4423 176 93.2882 176.788 93.5435C177.576 93.7988 178.422 93.367 178.677 92.5789L175.823 91.6542ZM183.604 80.9833C183.992 80.2511 183.712 79.3434 182.98 78.9559C182.248 78.5684 181.34 78.8478 180.953 79.58L183.604 80.9833ZM185.819 71.5687C185.348 72.2501 185.519 73.1844 186.2 73.6557C186.881 74.1269 187.816 73.9565 188.287 73.2752L185.819 71.5687ZM196.295 63.5476C196.874 62.9548 196.862 62.0051 196.269 61.4265C195.676 60.8479 194.727 60.8594 194.148 61.4522L196.295 63.5476ZM201.088 55.1618C200.442 55.6793 200.337 56.6233 200.854 57.2701C201.372 57.917 202.316 58.0218 202.963 57.5042L201.088 55.1618ZM213.438 50.5082C214.164 50.1086 214.428 49.1963 214.028 48.4707C213.628 47.745 212.716 47.4808 211.991 47.8805L213.438 50.5082ZM220.446 43.8583C219.679 44.1697 219.309 45.0445 219.621 45.8122C219.932 46.5798 220.807 46.9496 221.574 46.6381L220.446 43.8583ZM233.613 42.8139C234.419 42.623 234.917 41.8147 234.726 41.0086C234.535 40.2024 233.727 39.7037 232.921 39.8947L233.613 42.8139ZM242.088 38.1996C241.267 38.3109 240.692 39.0666 240.803 39.8876C240.914 40.7085 241.67 41.2837 242.491 41.1724L242.088 38.1996ZM255.137 40.248C255.965 40.236 256.627 39.5548 256.615 38.7264C256.603 37.8981 255.922 37.2363 255.093 37.2483L255.137 40.248ZM264.418 37.4679C263.591 37.4182 262.88 38.0483 262.83 38.8752C262.781 39.7021 263.411 40.4128 264.238 40.4625L264.418 37.4679ZM176.072 107.394C176.032 105.661 176.18 103.59 176.551 101.257L173.589 100.785C173.195 103.26 173.027 105.516 173.073 107.464L176.072 107.394ZM178.677 92.5789C179.867 88.906 181.491 84.9767 183.604 80.9833L180.953 79.58C178.757 83.7294 177.066 87.8191 175.823 91.6542L178.677 92.5789ZM188.287 73.2752C190.584 69.9531 193.243 66.6742 196.295 63.5476L194.148 61.4522C190.973 64.7056 188.208 68.1158 185.819 71.5687L188.287 73.2752ZM202.963 57.5042C206.125 54.9737 209.61 52.6169 213.438 50.5082L211.991 47.8805C208.008 50.0741 204.381 52.5271 201.088 55.1618L202.963 57.5042ZM221.574 46.6381C225.308 45.1229 229.316 43.8316 233.613 42.8139L232.921 39.8947C228.477 40.9472 224.324 42.285 220.446 43.8583L221.574 46.6381ZM242.491 41.1724C246.484 40.631 250.697 40.3124 255.137 40.248L255.093 37.2483C250.537 37.3144 246.204 37.6415 242.088 38.1996L242.491 41.1724ZM264.238 40.4625C266.31 40.5871 268.427 40.7642 270.589 40.9964L270.909 38.0135C268.701 37.7765 266.538 37.5954 264.418 37.4679L264.238 40.4625Z" fill="white"/>
<defs>
<filter id="filter0_d_182_179" x="0.189013" y="0" width="407.622" height="304.145" filterUnits="userSpaceOnUse" color-interpolation-filters="sRGB">
<feFlood flood-opacity="0" result="BackgroundImageFix"/>
<feColorMatrix in="SourceAlpha" type="matrix" values="0 0 0 0 0 0 0 0 0 0 0 0 0 0 0 0 0 0 127 0" result="hardAlpha"/>
<feOffset dy="25.34"/>
<feGaussianBlur stdDeviation="6.90549"/>
<feComposite in2="hardAlpha" operator="out"/>
<feColorMatrix type="matrix" values="0 0 0 0 0 0 0 0 0 0 0 0 0 0 0 0 0 0 0.2 0"/>
<feBlend mode="normal" in2="BackgroundImageFix" result="effect1_dropShadow_182_179"/>
<feBlend mode="normal" in="SourceGraphic" in2="effect1_dropShadow_182_179" result="shape"/>
</filter>
<linearGradient id="paint0_linear_182_179" x1="427" y1="-17" x2="-8.38083" y2="117.916" gradientUnits="userSpaceOnUse">
<stop stop-color="#39C19C"/>
<stop offset="0.723958" stop-color="#8F85FF"/>
<stop offset="1" stop-color="#FF9E9E"/>
</linearGradient>
</defs>
</svg>
