<svg width="157" height="58" viewBox="0 0 157 58" fill="none" xmlns="http://www.w3.org/2000/svg">
<path d="M15.8845 19.4794C15.8845 20.2689 16.0819 20.9985 16.4766 21.6684C16.8833 22.3383 17.4216 22.8706 18.0915 23.2653C18.7733 23.6601 19.509 23.8575 20.2985 23.8575C21.1119 23.8575 21.8476 23.696 22.5055 23.373C23.1634 23.05 23.6777 22.6014 24.0486 22.0273C24.4313 21.4531 24.6287 20.8072 24.6407 20.0894H25.2866C25.2866 20.9148 25.0653 21.6684 24.6227 22.3502C24.1921 23.0201 23.594 23.5524 22.8284 23.9472C22.0748 24.3299 21.2315 24.5213 20.2985 24.5213C19.3894 24.5213 18.5461 24.2941 17.7685 23.8395C16.991 23.385 16.375 22.7749 15.9204 22.0093C15.4659 21.2318 15.2386 20.3885 15.2386 19.4794V16.5367C15.2386 15.6276 15.4599 14.7903 15.9025 14.0247C16.357 13.2472 16.9671 12.6312 17.7326 12.1766C18.5102 11.7221 19.3535 11.4948 20.2626 11.4948C21.1837 11.4948 22.021 11.6922 22.7746 12.0869C23.5402 12.4697 24.1443 13.002 24.5868 13.6838C25.0294 14.3537 25.2507 15.1013 25.2507 15.9267H24.6048C24.5928 15.209 24.3955 14.563 24.0127 13.9888C23.6299 13.4147 23.1095 12.9661 22.4516 12.6431C21.8057 12.3202 21.076 12.1587 20.2626 12.1587C19.4731 12.1587 18.7434 12.356 18.0736 12.7508C17.4037 13.1455 16.8714 13.6778 16.4766 14.3477C16.0819 15.0176 15.8845 15.7473 15.8845 16.5367V19.4794ZM43.5029 11.4948C44.4359 11.4948 45.2972 11.728 46.0867 12.1946C46.8762 12.6491 47.4982 13.2711 47.9527 14.0606C48.4193 14.8501 48.6525 15.7114 48.6525 16.6444V19.3717C48.6525 20.3048 48.4193 21.166 47.9527 21.9555C47.4982 22.745 46.8762 23.373 46.0867 23.8395C45.2972 24.2941 44.4359 24.5213 43.5029 24.5213C42.5699 24.5213 41.7086 24.2941 40.9191 23.8395C40.1296 23.373 39.5016 22.745 39.0351 21.9555C38.5805 21.166 38.3533 20.3048 38.3533 19.3717V16.6444C38.3533 15.7114 38.5805 14.8501 39.0351 14.0606C39.5016 13.2711 40.1296 12.6491 40.9191 12.1946C41.7086 11.728 42.5699 11.4948 43.5029 11.4948ZM39.0172 19.3717C39.0172 20.1851 39.2145 20.9387 39.6093 21.6325C40.016 22.3144 40.5603 22.8586 41.2421 23.2653C41.9359 23.6601 42.6895 23.8575 43.5029 23.8575C44.3163 23.8575 45.0639 23.6601 45.7458 23.2653C46.4396 22.8586 46.9838 22.3144 47.3786 21.6325C47.7853 20.9387 47.9886 20.1851 47.9886 19.3717V16.6444C47.9886 15.831 47.7853 15.0834 47.3786 14.4015C46.9838 13.7077 46.4396 13.1635 45.7458 12.7687C45.0639 12.362 44.3163 12.1587 43.5029 12.1587C42.6895 12.1587 41.9359 12.362 41.2421 12.7687C40.5603 13.1635 40.016 13.7077 39.6093 14.4015C39.2145 15.0834 39.0172 15.831 39.0172 16.6444V19.3717ZM66.7073 11.7639C67.6164 11.7639 68.4537 11.9912 69.2193 12.4458C69.9968 12.9003 70.6129 13.5163 71.0674 14.2939C71.522 15.0594 71.7493 15.8968 71.7493 16.8059V19.2102C71.7493 20.1193 71.522 20.9627 71.0674 21.7402C70.6129 22.5058 69.9968 23.1158 69.2193 23.5704C68.4537 24.0249 67.6164 24.2522 66.7073 24.2522H62.096V11.7639H66.7073ZM71.0854 16.8059C71.0854 16.0164 70.888 15.2867 70.4933 14.6168C70.0985 13.947 69.5602 13.4147 68.8784 13.0199C68.2085 12.6252 67.4788 12.4278 66.6894 12.4278H62.7599V23.5883H66.6894C67.4788 23.5883 68.2085 23.3909 68.8784 22.9962C69.5602 22.6014 70.0985 22.0691 70.4933 21.3993C70.888 20.7294 71.0854 19.9997 71.0854 19.2102V16.8059ZM85.8566 11.7639H94.6486V12.4278H86.5205V17.4877H93.59V18.1516H86.5205V23.5883H94.6486V24.2522H85.8566V11.7639ZM139.658 14.886C139.658 15.3405 139.568 15.7772 139.389 16.1958C139.221 16.6145 138.976 16.9853 138.653 17.3083L138.187 16.8418C138.45 16.5786 138.647 16.2796 138.779 15.9446C138.922 15.6097 138.994 15.2568 138.994 14.886C138.994 14.3836 138.868 13.9231 138.617 13.5044C138.378 13.0738 138.043 12.7388 137.612 12.4996C137.194 12.2484 136.733 12.1228 136.231 12.1228C135.74 12.1228 135.28 12.2484 134.849 12.4996C134.431 12.7508 134.096 13.0857 133.844 13.5044C133.593 13.9231 133.468 14.3836 133.468 14.886C133.468 15.2568 133.533 15.6097 133.665 15.9446C133.808 16.2796 134.012 16.5786 134.275 16.8418L139.425 21.9914C139.748 21.4411 139.909 20.8251 139.909 20.1433V19.4973H141.757V20.1433H140.555C140.555 21.0045 140.34 21.7821 139.909 22.4758L141.739 24.2881H140.788L139.514 23.0141C139.108 23.4926 138.623 23.8634 138.061 24.1266C137.499 24.3898 136.895 24.5213 136.249 24.5213C135.471 24.5213 134.748 24.3299 134.078 23.9472C133.42 23.5524 132.893 23.0261 132.499 22.3682C132.116 21.6983 131.924 20.9746 131.924 20.1971C131.924 19.5631 132.056 18.959 132.319 18.3849C132.594 17.7987 132.977 17.3023 133.468 16.8956C133.037 16.3214 132.822 15.6516 132.822 14.886C132.822 14.264 132.971 13.6958 133.27 13.1814C133.581 12.6551 134 12.2424 134.526 11.9434C135.053 11.6323 135.627 11.4768 136.249 11.4768C136.871 11.4768 137.439 11.6323 137.953 11.9434C138.48 12.2424 138.892 12.6551 139.191 13.1814C139.502 13.6958 139.658 14.264 139.658 14.886ZM133.898 17.398C133.48 17.7449 133.151 18.1636 132.911 18.654C132.684 19.1444 132.57 19.6588 132.57 20.1971C132.57 20.867 132.732 21.483 133.055 22.0452C133.39 22.6074 133.838 23.056 134.401 23.3909C134.963 23.7139 135.579 23.8754 136.249 23.8754C136.799 23.8754 137.319 23.7558 137.81 23.5165C138.3 23.2773 138.713 22.9543 139.048 22.5476L133.898 17.398ZM16.692 46.2522H16.0281V33.7639H21.0521C21.8894 33.7639 22.661 33.9434 23.3667 34.3022C24.0844 34.6611 24.6526 35.1695 25.0713 35.8274C25.49 36.4853 25.6993 37.2448 25.6993 38.1061C25.6993 38.9315 25.484 39.6911 25.0534 40.3849C24.6347 41.0787 24.0605 41.611 23.3308 41.9818C22.6969 42.3048 21.9373 42.4662 21.0521 42.4662H16.692V46.2522ZM16.692 41.8024H21.0521C21.8177 41.8024 22.4457 41.6827 22.9361 41.4435C23.5701 41.1444 24.0785 40.6959 24.4612 40.0978C24.844 39.4997 25.0354 38.8358 25.0354 38.1061C25.0354 37.3884 24.844 36.7305 24.4612 36.1324C24.0785 35.5343 23.5641 35.0857 22.9182 34.7867C22.4277 34.5474 21.8057 34.4278 21.0521 34.4278H16.692V41.8024ZM47.558 33.7639V34.4278H43.8259V45.5883H47.558V46.2522H39.4657V45.5883H43.1799V34.4278H39.4657V33.7639H47.558ZM66.4023 40.0081L61.6115 33.7639H62.4728L66.8329 39.4518L71.211 33.7639H72.0543L67.2635 40.0081L72.0543 46.2522H71.211L66.8329 40.5643L62.4728 46.2522H61.6115L66.4023 40.0081ZM85.8566 33.7639H94.6486V34.4278H86.5205V39.4877H93.59V40.1516H86.5205V45.5883H94.6486V46.2522H85.8566V33.7639ZM109.635 46.2522V33.7639H110.299V45.5883H119.001V46.2522H109.635ZM137.092 40.2772C136.075 40.0739 135.244 39.8526 134.598 39.6133C133.964 39.3621 133.462 39.0272 133.091 38.6085C132.732 38.1779 132.552 37.6276 132.552 36.9578C132.552 36.264 132.732 35.6539 133.091 35.1276C133.462 34.6013 133.976 34.1946 134.634 33.9075C135.304 33.6204 136.075 33.4768 136.949 33.4768C137.786 33.4768 138.551 33.6563 139.245 34.0151C139.951 34.362 140.507 34.8525 140.914 35.4864C141.321 36.1204 141.524 36.8441 141.524 37.6575H140.86C140.86 36.9518 140.687 36.3298 140.34 35.7915C139.993 35.2532 139.52 34.8405 138.922 34.5534C138.324 34.2544 137.66 34.1048 136.931 34.1048C136.285 34.1048 135.681 34.2065 135.118 34.4099C134.556 34.6132 134.096 34.9242 133.737 35.3429C133.39 35.7616 133.216 36.2879 133.216 36.9219C133.216 37.4961 133.384 37.9566 133.719 38.3035C134.054 38.6384 134.49 38.8956 135.029 39.075C135.567 39.2545 136.321 39.4458 137.289 39.6492C138.27 39.8526 139.03 40.0499 139.568 40.2413C140.118 40.4207 140.579 40.7258 140.95 41.1564C141.333 41.587 141.524 42.1911 141.524 42.9686C141.524 43.7462 141.315 44.4041 140.896 44.9424C140.489 45.4687 139.945 45.8634 139.263 46.1266C138.581 46.3898 137.84 46.5213 137.038 46.5213C136.045 46.5213 135.172 46.3359 134.419 45.9651C133.665 45.5943 133.085 45.0739 132.678 44.4041C132.283 43.7222 132.086 42.9447 132.086 42.0715H132.75C132.75 42.8371 132.917 43.5069 133.252 44.0811C133.599 44.6553 134.096 45.1039 134.742 45.4268C135.387 45.7378 136.153 45.8933 137.038 45.8933C138.139 45.8933 139.048 45.6302 139.766 45.1039C140.495 44.5775 140.86 43.8598 140.86 42.9507C140.86 42.3287 140.705 41.8502 140.394 41.5153C140.083 41.1803 139.688 40.9411 139.209 40.7975C138.743 40.642 138.037 40.4686 137.092 40.2772Z" fill="white"/>
<path d="M16.4766 21.6684L16.1335 21.8706L16.1362 21.8751L16.4766 21.6684ZM18.0915 23.2653L17.8893 23.6085L17.8919 23.61L18.0915 23.2653ZM22.5055 23.373L22.33 23.0155L22.5055 23.373ZM24.0486 22.0273L23.7171 21.8063L23.714 21.8112L24.0486 22.0273ZM24.6407 20.0894V19.6911H24.249L24.2424 20.0828L24.6407 20.0894ZM25.2866 20.0894H25.6849V19.6911H25.2866V20.0894ZM24.6227 22.3502L24.2887 22.1334L24.2877 22.1349L24.6227 22.3502ZM22.8284 23.9472L23.0088 24.3023L23.011 24.3012L22.8284 23.9472ZM15.9204 22.0093L15.5766 22.2104L15.5779 22.2127L15.9204 22.0093ZM15.9025 14.0247L15.5586 13.8237L15.5577 13.8254L15.9025 14.0247ZM17.7326 12.1766L17.5316 11.8328L17.5293 11.8341L17.7326 12.1766ZM22.7746 12.0869L22.5898 12.4398L22.5965 12.4431L22.7746 12.0869ZM24.5868 13.6838L24.2528 13.9007L24.2545 13.9034L24.5868 13.6838ZM25.2507 15.9267V16.325H25.649V15.9267H25.2507ZM24.6048 15.9267L24.2066 15.9333L24.2131 16.325H24.6048V15.9267ZM22.4516 12.6431L22.2735 12.9994L22.2761 13.0007L22.4516 12.6431ZM18.0736 12.7508L18.2758 13.0939L18.0736 12.7508ZM16.4766 14.3477L16.1335 14.1455L16.4766 14.3477ZM15.4862 19.4794C15.4862 20.3388 15.7021 21.1385 16.1335 21.8706L16.8198 21.4662C16.4617 20.8586 16.2828 20.1989 16.2828 19.4794H15.4862ZM16.1362 21.8751C16.5767 22.6007 17.1623 23.1801 17.8893 23.6085L18.2937 22.9222C17.6809 22.5611 17.19 22.0759 16.8171 21.4617L16.1362 21.8751ZM17.8919 23.61C18.6346 24.04 19.4391 24.2557 20.2985 24.2557V23.4592C19.5789 23.4592 18.9121 23.2802 18.2911 22.9206L17.8919 23.61ZM20.2985 24.2557C21.166 24.2557 21.9627 24.0831 22.681 23.7305L22.33 23.0155C21.7324 23.3088 21.0578 23.4592 20.2985 23.4592V24.2557ZM22.681 23.7305C23.3989 23.3781 23.9703 22.8826 24.3831 22.2434L23.714 21.8112C23.3852 22.3203 22.9279 22.7219 22.33 23.0155L22.681 23.7305ZM24.38 22.2482C24.8069 21.6078 25.0257 20.8869 25.0389 20.0961L24.2424 20.0828C24.2317 20.7274 24.0558 21.2984 23.7172 21.8063L24.38 22.2482ZM24.6407 20.4877H25.2866V19.6911H24.6407V20.4877ZM24.8883 20.0894C24.8883 20.8391 24.6887 21.5172 24.2887 22.1334L24.9568 22.5671C25.442 21.8197 25.6849 20.9905 25.6849 20.0894H24.8883ZM24.2877 22.1349C23.8979 22.7412 23.3546 23.2278 22.6459 23.5932L23.011 24.3012C23.8334 23.8771 24.4863 23.299 24.9578 22.5656L24.2877 22.1349ZM22.6481 23.5921C21.956 23.9436 21.1754 24.1231 20.2985 24.1231V24.9196C21.2876 24.9196 22.1937 24.7163 23.0088 24.3023L22.6481 23.5921ZM20.2985 24.1231C19.4593 24.1231 18.6855 23.9142 17.9695 23.4957L17.5675 24.1834C18.4066 24.6739 19.3194 24.9196 20.2985 24.9196V24.1231ZM17.9695 23.4957C17.2496 23.0748 16.6825 22.5128 16.2629 21.806L15.5779 22.2127C16.0674 23.037 16.7324 23.6951 17.5675 24.1834L17.9695 23.4957ZM16.2643 21.8083C15.8457 21.0924 15.6369 20.3185 15.6369 19.4794H14.8403C14.8403 20.4584 15.086 21.3712 15.5766 22.2103L16.2643 21.8083ZM15.6369 19.4794V16.5367H14.8403V19.4794H15.6369ZM15.6369 16.5367C15.6369 15.6956 15.8407 14.9273 16.2473 14.2241L15.5577 13.8254C15.079 14.6533 14.8403 15.5597 14.8403 16.5367H15.6369ZM16.2463 14.2257C16.6672 13.5058 17.2292 12.9387 17.936 12.5191L17.5293 11.8341C16.705 12.3236 16.0469 12.9886 15.5586 13.8237L16.2463 14.2257ZM17.9337 12.5205C18.6496 12.1019 19.4234 11.8931 20.2626 11.8931V11.0965C19.2835 11.0965 18.3708 11.3422 17.5316 11.8328L17.9337 12.5205ZM20.2626 11.8931C21.1247 11.8931 21.8979 12.0773 22.5898 12.4397L22.9594 11.7341C22.1442 11.307 21.2426 11.0965 20.2626 11.0965V11.8931ZM22.5965 12.4431C23.3021 12.7959 23.8509 13.2816 24.2528 13.9007L24.9209 13.467C24.4376 12.7224 23.7783 12.1434 22.9527 11.7307L22.5965 12.4431ZM24.2545 13.9034C24.6528 14.5062 24.8524 15.1771 24.8524 15.9267H25.649C25.649 15.0256 25.406 14.2012 24.9192 13.4643L24.2545 13.9034ZM25.2507 15.5284H24.6048V16.325H25.2507V15.5284ZM25.003 15.92C24.9898 15.1292 24.771 14.4083 24.3441 13.7679L23.6813 14.2098C24.0199 14.7178 24.1958 15.2887 24.2066 15.9333L25.003 15.92ZM24.3441 13.7679C23.9199 13.1316 23.3441 12.6376 22.6272 12.2856L22.2761 13.0007C22.875 13.2946 23.3399 13.6978 23.6813 14.2098L24.3441 13.7679ZM22.6298 12.2869C21.9219 11.9329 21.13 11.7604 20.2626 11.7604V12.557C21.0221 12.557 21.6895 12.7074 22.2735 12.9994L22.6298 12.2869ZM20.2626 11.7604C19.4031 11.7604 18.6035 11.9762 17.8714 12.4076L18.2758 13.0939C18.8834 12.7359 19.5431 12.557 20.2626 12.557V11.7604ZM17.8714 12.4076C17.1433 12.8367 16.5625 13.4175 16.1335 14.1455L16.8198 14.5499C17.1803 13.9382 17.6641 13.4544 18.2758 13.0939L17.8714 12.4076ZM16.1335 14.1455C15.7021 14.8776 15.4862 15.6773 15.4862 16.5367H16.2828C16.2828 15.8172 16.4617 15.1575 16.8198 14.5499L16.1335 14.1455ZM15.4862 16.5367V19.4794H16.2828V16.5367H15.4862ZM46.0867 12.1946L45.884 12.5375L45.8879 12.5397L46.0867 12.1946ZM47.9527 14.0606L47.6075 14.2594L47.6098 14.2632L47.9527 14.0606ZM47.9527 21.9555L47.6098 21.7529L47.6076 21.7568L47.9527 21.9555ZM46.0867 23.8395L46.2854 24.1847L46.2893 24.1824L46.0867 23.8395ZM40.9191 23.8395L40.7165 24.1824L40.7204 24.1847L40.9191 23.8395ZM39.0351 21.9555L38.6899 22.1542L38.6922 22.1581L39.0351 21.9555ZM39.0351 14.0606L38.6922 13.858L38.6899 13.8619L39.0351 14.0606ZM40.9191 12.1946L41.1179 12.5397L41.1217 12.5375L40.9191 12.1946ZM39.6093 21.6325L39.263 21.8295L39.2672 21.8366L39.6093 21.6325ZM41.2421 23.2653L41.038 23.6075L41.0451 23.6115L41.2421 23.2653ZM45.7458 23.2653L45.9453 23.61L45.9472 23.6089L45.7458 23.2653ZM47.3786 21.6325L47.035 21.4311L47.0339 21.433L47.3786 21.6325ZM47.3786 14.4015L47.0323 14.5985L47.0365 14.6056L47.3786 14.4015ZM45.7458 12.7687L45.5417 13.1109L45.5488 13.1149L45.7458 12.7687ZM41.2421 12.7687L41.4416 13.1134L41.4435 13.1123L41.2421 12.7687ZM39.6093 14.4015L39.2657 14.2001L39.2646 14.202L39.6093 14.4015ZM43.5029 11.8931C44.366 11.8931 45.157 12.1079 45.8841 12.5374L46.2893 11.8517C45.4373 11.3482 44.5059 11.0965 43.5029 11.0965V11.8931ZM45.8879 12.5397C46.6166 12.9592 47.1881 13.5307 47.6076 14.2593L48.2979 13.8619C47.8083 13.0115 47.1358 12.339 46.2854 11.8494L45.8879 12.5397ZM47.6098 14.2632C48.0394 14.9902 48.2542 15.7813 48.2542 16.6444H49.0508C49.0508 15.6414 48.7991 14.71 48.2956 13.858L47.6098 14.2632ZM48.2542 16.6444V19.3717H49.0508V16.6444H48.2542ZM48.2542 19.3717C48.2542 20.2348 48.0394 21.0259 47.6098 21.7529L48.2956 22.1581C48.7991 21.3062 49.0508 20.3747 49.0508 19.3717H48.2542ZM47.6076 21.7568C47.1875 22.4863 46.6148 23.0648 45.8841 23.4966L46.2893 24.1824C47.1375 23.6812 47.8088 23.0037 48.2979 22.1542L47.6076 21.7568ZM45.8879 23.4943C45.1604 23.9132 44.3679 24.1231 43.5029 24.1231V24.9196C44.5039 24.9196 45.434 24.6749 46.2854 24.1847L45.8879 23.4943ZM43.5029 24.1231C42.6378 24.1231 41.8454 23.9132 41.1178 23.4943L40.7204 24.1847C41.5718 24.6749 42.5019 24.9196 43.5029 24.9196V24.1231ZM41.1217 23.4966C40.3901 23.0643 39.8103 22.4845 39.378 21.7529L38.6922 22.1581C39.1929 23.0055 39.8692 23.6817 40.7165 24.1824L41.1217 23.4966ZM39.3803 21.7568C38.9614 21.0292 38.7516 20.2368 38.7516 19.3717H37.955C37.955 20.3727 38.1997 21.3028 38.6899 22.1542L39.3803 21.7568ZM38.7516 19.3717V16.6444H37.955V19.3717H38.7516ZM38.7516 16.6444C38.7516 15.7794 38.9614 14.9869 39.3803 14.2593L38.6899 13.8619C38.1997 14.7133 37.955 15.6434 37.955 16.6444H38.7516ZM39.378 14.2632C39.8098 13.5325 40.3883 12.9598 41.1178 12.5397L40.7204 11.8494C39.8709 12.3385 39.1934 13.0098 38.6922 13.858L39.378 14.2632ZM41.1217 12.5375C41.8487 12.1079 42.6398 11.8931 43.5029 11.8931V11.0965C42.4999 11.0965 41.5685 11.3482 40.7165 11.8517L41.1217 12.5375ZM38.6189 19.3717C38.6189 20.2528 38.8335 21.0745 39.2631 21.8295L39.9555 21.4356C39.5955 20.803 39.4155 20.1174 39.4155 19.3717H38.6189ZM39.2672 21.8366C39.7078 22.5751 40.2995 23.1668 41.038 23.6074L41.4461 22.9233C40.821 22.5504 40.3242 22.0536 39.9513 21.4285L39.2672 21.8366ZM41.0451 23.6115C41.8001 24.0411 42.6218 24.2557 43.5029 24.2557V23.4592C42.7572 23.4592 42.0716 23.2791 41.439 22.9192L41.0451 23.6115ZM43.5029 24.2557C44.384 24.2557 45.2008 24.0411 45.9453 23.61L45.5462 22.9206C44.927 23.2791 44.2486 23.4592 43.5029 23.4592V24.2557ZM45.9472 23.6089C46.6991 23.1682 47.2933 22.5748 47.7233 21.8321L47.0339 21.433C46.6744 22.0539 46.18 22.5491 45.5443 22.9217L45.9472 23.6089ZM47.7222 21.834C48.1651 21.0783 48.3869 20.2551 48.3869 19.3717H47.5903C47.5903 20.1152 47.4054 20.7991 47.035 21.4311L47.7222 21.834ZM48.3869 19.3717V16.6444H47.5903V19.3717H48.3869ZM48.3869 16.6444C48.3869 15.761 48.1651 14.9426 47.7206 14.1975L47.0365 14.6056C47.4055 15.2241 47.5903 15.901 47.5903 16.6444H48.3869ZM47.7247 14.2046C47.2946 13.4485 46.6988 12.8527 45.9427 12.4225L45.5488 13.1149C46.1803 13.4742 46.6731 13.967 47.0324 14.5985L47.7247 14.2046ZM45.9498 12.4267C45.2047 11.9822 44.3863 11.7604 43.5029 11.7604V12.557C44.2463 12.557 44.9232 12.7418 45.5417 13.1108L45.9498 12.4267ZM43.5029 11.7604C42.6195 11.7604 41.7963 11.9822 41.0407 12.4251L41.4435 13.1123C42.0755 12.7419 42.7594 12.557 43.5029 12.557V11.7604ZM41.0425 12.424C40.2998 12.854 39.7064 13.4482 39.2657 14.2001L39.9529 14.603C40.3255 13.9673 40.8207 13.4729 41.4416 13.1134L41.0425 12.424ZM39.2646 14.202C38.8336 14.9465 38.6189 15.7633 38.6189 16.6444H39.4155C39.4155 15.8987 39.5955 15.2203 39.954 14.6011L39.2646 14.202ZM38.6189 16.6444V19.3717H39.4155V16.6444H38.6189ZM69.2193 12.4458L69.016 12.7882L69.0183 12.7896L69.2193 12.4458ZM71.0674 14.2939L70.7236 14.4949L70.725 14.4972L71.0674 14.2939ZM71.0674 21.7402L71.4099 21.9435L71.4113 21.9412L71.0674 21.7402ZM69.2193 23.5704L69.0183 23.2265L69.016 23.2279L69.2193 23.5704ZM62.096 24.2522H61.6977V24.6505H62.096V24.2522ZM62.096 11.7639V11.3656H61.6977V11.7639H62.096ZM70.4933 14.6168L70.1501 14.8191V14.8191L70.4933 14.6168ZM68.8784 13.0199L68.6762 13.3631L68.6788 13.3646L68.8784 13.0199ZM62.7599 12.4278V12.0295H62.3616V12.4278H62.7599ZM62.7599 23.5883H62.3616V23.9866H62.7599V23.5883ZM68.8784 22.9962L68.6788 22.6515L68.6762 22.6531L68.8784 22.9962ZM70.4933 21.3993L70.1501 21.1971V21.1971L70.4933 21.3993ZM66.7073 12.1622C67.5464 12.1622 68.3133 12.371 69.016 12.7882L69.4226 12.1033C68.5942 11.6114 67.6864 11.3656 66.7073 11.3656V12.1622ZM69.0183 12.7896C69.7367 13.2096 70.3036 13.7765 70.7236 14.4949L71.4113 14.0929C70.9222 13.2562 70.2569 12.591 69.4203 12.1019L69.0183 12.7896ZM70.725 14.4972C71.1422 15.1999 71.351 15.9668 71.351 16.8059H72.1475C72.1475 15.8268 71.9018 14.919 71.4099 14.0905L70.725 14.4972ZM71.351 16.8059V19.2102H72.1475V16.8059H71.351ZM71.351 19.2102C71.351 20.0494 71.1421 20.8232 70.7236 21.5392L71.4113 21.9412C71.9018 21.1021 72.1475 20.1893 72.1475 19.2102H71.351ZM70.725 21.5368C70.3053 22.2436 69.7382 22.8056 69.0183 23.2265L69.4203 23.9142C70.2554 23.426 70.9204 22.7679 71.4099 21.9435L70.725 21.5368ZM69.016 23.2279C68.3133 23.6451 67.5464 23.8539 66.7073 23.8539V24.6505C67.6864 24.6505 68.5942 24.4047 69.4226 23.9128L69.016 23.2279ZM66.7073 23.8539H62.096V24.6505H66.7073V23.8539ZM62.4943 24.2522V11.7639H61.6977V24.2522H62.4943ZM62.096 12.1622H66.7073V11.3656H62.096V12.1622ZM71.4837 16.8059C71.4837 15.9464 71.2678 15.1468 70.8364 14.4146L70.1501 14.8191C70.5082 15.4267 70.6871 16.0864 70.6871 16.8059H71.4837ZM70.8364 14.4146C70.4064 13.6849 69.8183 13.1038 69.0779 12.6752L68.6788 13.3646C69.3022 13.7255 69.7906 14.2091 70.1501 14.8191L70.8364 14.4146ZM69.0806 12.6768C68.3485 12.2454 67.5488 12.0295 66.6894 12.0295V12.8261C67.4089 12.8261 68.0686 13.005 68.6762 13.3631L69.0806 12.6768ZM66.6894 12.0295H62.7599V12.8261H66.6894V12.0295ZM62.3616 12.4278V23.5883H63.1581V12.4278H62.3616ZM62.7599 23.9866H66.6894V23.19H62.7599V23.9866ZM66.6894 23.9866C67.5488 23.9866 68.3485 23.7708 69.0806 23.3393L68.6762 22.6531C68.0686 23.0111 67.4089 23.19 66.6894 23.19V23.9866ZM69.0779 23.3409C69.8183 22.9123 70.4064 22.3312 70.8364 21.6015L70.1501 21.1971C69.7906 21.8071 69.3022 22.2906 68.6788 22.6515L69.0779 23.3409ZM70.8364 21.6015C71.2678 20.8694 71.4837 20.0697 71.4837 19.2102H70.6871C70.6871 19.9298 70.5082 20.5894 70.1501 21.1971L70.8364 21.6015ZM71.4837 19.2102V16.8059H70.6871V19.2102H71.4837ZM85.8566 11.7639V11.3656H85.4583V11.7639H85.8566ZM94.6486 11.7639H95.0469V11.3656H94.6486V11.7639ZM94.6486 12.4278V12.8261H95.0469V12.4278H94.6486ZM86.5205 12.4278V12.0295H86.1222V12.4278H86.5205ZM86.5205 17.4877H86.1222V17.886H86.5205V17.4877ZM93.59 17.4877H93.9883V17.0894H93.59V17.4877ZM93.59 18.1516V18.5499H93.9883V18.1516H93.59ZM86.5205 18.1516V17.7533H86.1222V18.1516H86.5205ZM86.5205 23.5883H86.1222V23.9866H86.5205V23.5883ZM94.6486 23.5883H95.0469V23.19H94.6486V23.5883ZM94.6486 24.2522V24.6505H95.0469V24.2522H94.6486ZM85.8566 24.2522H85.4583V24.6505H85.8566V24.2522ZM85.8566 12.1622H94.6486V11.3656H85.8566V12.1622ZM94.2503 11.7639V12.4278H95.0469V11.7639H94.2503ZM94.6486 12.0295H86.5205V12.8261H94.6486V12.0295ZM86.1222 12.4278V17.4877H86.9188V12.4278H86.1222ZM86.5205 17.886H93.59V17.0894H86.5205V17.886ZM93.1917 17.4877V18.1516H93.9883V17.4877H93.1917ZM93.59 17.7533H86.5205V18.5499H93.59V17.7533ZM86.1222 18.1516V23.5883H86.9188V18.1516H86.1222ZM86.5205 23.9866H94.6486V23.19H86.5205V23.9866ZM94.2503 23.5883V24.2522H95.0469V23.5883H94.2503ZM94.6486 23.8539H85.8566V24.6505H94.6486V23.8539ZM86.2549 24.2522V11.7639H85.4583V24.2522H86.2549ZM139.389 16.1958L139.023 16.0389L139.019 16.0479L139.389 16.1958ZM138.653 17.3083L138.371 17.5899L138.653 17.8716L138.935 17.5899L138.653 17.3083ZM138.187 16.8418L137.905 16.5601L137.623 16.8418L137.905 17.1234L138.187 16.8418ZM138.779 15.9446L138.412 15.7877L138.408 15.799L138.779 15.9446ZM138.617 13.5044L138.269 13.6979L138.276 13.7093L138.617 13.5044ZM137.612 12.4996L137.407 12.8413L137.419 12.8477L137.612 12.4996ZM134.849 12.4996L134.648 12.1555L134.644 12.1581L134.849 12.4996ZM133.844 13.5044L133.503 13.2995L133.844 13.5044ZM133.665 15.9446L133.294 16.0903L133.299 16.1015L133.665 15.9446ZM134.275 16.8418L133.993 17.1234L134.275 16.8418ZM139.425 21.9914L139.143 22.273L139.507 22.6373L139.768 22.193L139.425 21.9914ZM139.909 19.4973V19.099H139.511V19.4973H139.909ZM141.757 19.4973H142.156V19.099H141.757V19.4973ZM141.757 20.1433V20.5416H142.156V20.1433H141.757ZM140.555 20.1433V19.745H140.157V20.1433H140.555ZM139.909 22.4758L139.571 22.2658L139.403 22.5355L139.629 22.7589L139.909 22.4758ZM141.739 24.2881V24.6864H142.708L142.02 24.0051L141.739 24.2881ZM140.788 24.2881L140.507 24.5697L140.623 24.6864H140.788V24.2881ZM139.514 23.0141L139.796 22.7325L139.491 22.4271L139.211 22.7562L139.514 23.0141ZM138.061 24.1266L137.892 23.7659L138.061 24.1266ZM134.078 23.9472L133.873 24.2888L133.88 24.293L134.078 23.9472ZM132.499 22.3682L132.153 22.5658L132.157 22.5731L132.499 22.3682ZM132.319 18.3849L131.959 18.2156L131.957 18.2189L132.319 18.3849ZM133.468 16.8956L133.722 17.2022L134.014 16.9601L133.786 16.6566L133.468 16.8956ZM133.27 13.1814L132.927 12.9788L132.926 12.9812L133.27 13.1814ZM134.526 11.9434L134.723 12.2897L134.729 12.2862L134.526 11.9434ZM137.953 11.9434L137.747 12.2843L137.757 12.2896L137.953 11.9434ZM139.191 13.1814L138.845 13.3782L138.851 13.3875L139.191 13.1814ZM133.898 17.398L134.18 17.1164L133.923 16.8599L133.644 17.0913L133.898 17.398ZM132.911 18.654L132.553 18.4794L132.55 18.4865L132.911 18.654ZM133.055 22.0452L132.709 22.2436L132.713 22.2491L133.055 22.0452ZM134.401 23.3909L134.197 23.7332L134.202 23.7363L134.401 23.3909ZM137.81 23.5165L137.984 23.8745H137.984L137.81 23.5165ZM139.048 22.5476L139.355 22.8008L139.585 22.5217L139.329 22.266L139.048 22.5476ZM139.26 14.886C139.26 15.2865 139.181 15.6697 139.023 16.0389L139.755 16.3527C139.955 15.8846 140.056 15.3946 140.056 14.886H139.26ZM139.019 16.0479C138.872 16.4158 138.657 16.7413 138.371 17.0267L138.935 17.5899C139.295 17.2293 139.571 16.8132 139.759 16.3437L139.019 16.0479ZM138.935 17.0267L138.468 16.5601L137.905 17.1234L138.371 17.5899L138.935 17.0267ZM138.468 17.1234C138.769 16.8229 138.997 16.4779 139.149 16.0903L138.408 15.799C138.297 16.0812 138.131 16.3343 137.905 16.5601L138.468 17.1234ZM139.145 16.1015C139.31 15.7161 139.392 15.3098 139.392 14.886H138.596C138.596 15.2038 138.535 15.5033 138.413 15.7877L139.145 16.1015ZM139.392 14.886C139.392 14.3136 139.248 13.7819 138.959 13.2995L138.276 13.7093C138.489 14.0642 138.596 14.4536 138.596 14.886H139.392ZM138.965 13.311C138.69 12.8153 138.301 12.4268 137.806 12.1514L137.419 12.8477C137.785 13.0509 138.066 13.3322 138.269 13.6978L138.965 13.311ZM137.817 12.1581C137.335 11.8686 136.803 11.7245 136.231 11.7245V12.5211C136.663 12.5211 137.053 12.6282 137.407 12.8411L137.817 12.1581ZM136.231 11.7245C135.669 11.7245 135.139 11.8694 134.648 12.1555L135.05 12.8436C135.421 12.6273 135.812 12.5211 136.231 12.5211V11.7245ZM134.644 12.1581C134.17 12.4429 133.788 12.8247 133.503 13.2995L134.186 13.7093C134.403 13.3467 134.691 13.0587 135.054 12.8411L134.644 12.1581ZM133.503 13.2995C133.213 13.7819 133.069 14.3136 133.069 14.886H133.866C133.866 14.4536 133.973 14.0642 134.186 13.7093L133.503 13.2995ZM133.069 14.886C133.069 15.3051 133.144 15.7075 133.294 16.0903L134.036 15.799C133.923 15.5119 133.866 15.2085 133.866 14.886H133.069ZM133.299 16.1015C133.463 16.484 133.695 16.8252 133.993 17.1234L134.557 16.5601C134.329 16.332 134.154 16.0751 134.031 15.7877L133.299 16.1015ZM133.993 17.1234L139.143 22.273L139.706 21.7098L134.557 16.5601L133.993 17.1234ZM139.768 22.193C140.129 21.5774 140.307 20.8909 140.307 20.1433H139.511C139.511 20.7593 139.366 21.3049 139.081 21.7898L139.768 22.193ZM140.307 20.1433V19.4973H139.511V20.1433H140.307ZM139.909 19.8956H141.757V19.099H139.909V19.8956ZM141.359 19.4973V20.1433H142.156V19.4973H141.359ZM141.757 19.745H140.555V20.5416H141.757V19.745ZM140.157 20.1433C140.157 20.9346 139.96 21.6386 139.571 22.2658L140.247 22.6859C140.719 21.9255 140.953 21.0745 140.953 20.1433H140.157ZM139.629 22.7589L141.459 24.5711L142.02 24.0051L140.189 22.1928L139.629 22.7589ZM141.739 23.8898H140.788V24.6864H141.739V23.8898ZM141.07 24.0065L139.796 22.7325L139.233 23.2958L140.507 24.5697L141.07 24.0065ZM139.211 22.7562C138.841 23.1917 138.402 23.5272 137.892 23.7659L138.23 24.4873C138.844 24.1997 139.375 23.7936 139.818 23.2721L139.211 22.7562ZM137.892 23.7659C137.385 24.0033 136.839 24.1231 136.249 24.1231V24.9196C136.951 24.9196 137.613 24.7762 138.23 24.4873L137.892 23.7659ZM136.249 24.1231C135.54 24.1231 134.884 23.9495 134.275 23.6014L133.88 24.293C134.611 24.7104 135.402 24.9196 136.249 24.9196V24.1231ZM134.283 23.6056C133.681 23.2445 133.201 22.7651 132.84 22.1633L132.157 22.5731C132.586 23.2871 133.159 23.8603 133.873 24.2887L134.283 23.6056ZM132.844 22.1706C132.496 21.5614 132.323 20.9059 132.323 20.1971H131.526C131.526 21.0434 131.735 21.8353 132.153 22.5658L132.844 22.1706ZM132.323 20.1971C132.323 19.6202 132.442 19.0727 132.681 18.5508L131.957 18.2189C131.67 18.8454 131.526 19.5061 131.526 20.1971H132.323ZM132.68 18.5541C132.93 18.0201 133.277 17.5709 133.722 17.2022L133.213 16.589C132.677 17.0337 132.258 17.5773 131.959 18.2156L132.68 18.5541ZM133.786 16.6566C133.411 16.1561 133.22 15.5715 133.22 14.886H132.423C132.423 15.7316 132.663 16.4867 133.149 17.1346L133.786 16.6566ZM133.22 14.886C133.22 14.331 133.352 13.8324 133.615 13.3816L132.926 12.9812C132.59 13.5592 132.423 14.197 132.423 14.886H133.22ZM133.613 13.384C133.889 12.9169 134.258 12.554 134.723 12.2896L134.329 11.5971C133.742 11.9308 133.273 12.3933 132.927 12.9788L133.613 13.384ZM134.729 12.2862C135.193 12.0122 135.697 11.8751 136.249 11.8751V11.0785C135.557 11.0785 134.912 11.2525 134.324 11.6005L134.729 12.2862ZM136.249 11.8751C136.801 11.8751 137.297 12.0121 137.747 12.2842L138.159 11.6025C137.581 11.2526 136.941 11.0785 136.249 11.0785V11.8751ZM137.757 12.2896C138.22 12.5532 138.581 12.9143 138.845 13.3782L139.538 12.9847C139.203 12.3959 138.739 11.9316 138.15 11.5971L137.757 12.2896ZM138.851 13.3875C139.123 13.8375 139.26 14.334 139.26 14.886H140.056C140.056 14.194 139.882 13.5541 139.532 12.9753L138.851 13.3875ZM133.644 17.0913C133.182 17.4745 132.817 17.9382 132.553 18.4794L133.269 18.8286C133.484 18.3889 133.777 18.0153 134.152 17.7047L133.644 17.0913ZM132.55 18.4865C132.298 19.0292 132.172 19.6007 132.172 20.1971H132.969C132.969 19.7169 133.07 19.2597 133.273 18.8215L132.55 18.4865ZM132.172 20.1971C132.172 20.9342 132.351 21.619 132.71 22.2436L133.4 21.8468C133.113 21.347 132.969 20.7998 132.969 20.1971H132.172ZM132.713 22.2491C133.082 22.8682 133.578 23.3643 134.197 23.7331L134.604 23.0488C134.099 22.7477 133.698 22.3467 133.397 21.8414L132.713 22.2491ZM134.202 23.7363C134.827 24.0951 135.512 24.2737 136.249 24.2737V23.4771C135.646 23.4771 135.099 23.3327 134.599 23.0456L134.202 23.7363ZM136.249 24.2737C136.859 24.2737 137.439 24.1405 137.984 23.8745L137.635 23.1586C137.2 23.371 136.739 23.4771 136.249 23.4771V24.2737ZM137.984 23.8745C138.524 23.6112 138.983 23.2531 139.355 22.8008L138.74 22.2944C138.443 22.6555 138.076 22.9434 137.635 23.1586L137.984 23.8745ZM139.329 22.266L134.18 17.1164L133.617 17.6796L138.766 22.8293L139.329 22.266ZM16.692 46.2522V46.6505H17.0902V46.2522H16.692ZM16.0281 46.2522H15.6298V46.6505H16.0281V46.2522ZM16.0281 33.7639V33.3656H15.6298V33.7639H16.0281ZM23.3667 34.3022L23.1862 34.6572L23.1886 34.6585L23.3667 34.3022ZM25.0713 35.8274L24.7353 36.0412L25.0713 35.8274ZM25.0534 40.3849L24.7149 40.1748L24.7124 40.1791L25.0534 40.3849ZM23.3308 41.9818L23.1504 41.6267L23.15 41.6269L23.3308 41.9818ZM16.692 42.4662V42.068H16.2937V42.4662H16.692ZM16.692 41.8024H16.2937V42.2006H16.692V41.8024ZM22.9361 41.4435L22.7662 41.0832L22.7615 41.0855L22.9361 41.4435ZM24.4612 40.0978L24.1258 39.8831L24.4612 40.0978ZM22.9182 34.7867L22.7435 35.1447L22.7508 35.1481L22.9182 34.7867ZM16.692 34.4278V34.0295H16.2937V34.4278H16.692ZM16.692 45.8539H16.0281V46.6505H16.692V45.8539ZM16.4264 46.2522V33.7639H15.6298V46.2522H16.4264ZM16.0281 34.1622H21.0521V33.3656H16.0281V34.1622ZM21.0521 34.1622C21.8304 34.1622 22.5396 34.3285 23.1862 34.6572L23.5472 33.9472C22.7823 33.5582 21.9485 33.3656 21.0521 33.3656V34.1622ZM23.1886 34.6585C23.8437 34.986 24.3565 35.446 24.7353 36.0412L25.4073 35.6135C24.9487 34.8929 24.3252 34.3361 23.5448 33.946L23.1886 34.6585ZM24.7353 36.0412C25.1091 36.6286 25.301 37.3124 25.301 38.1061H26.0976C26.0976 37.1773 25.8708 36.3419 25.4073 35.6135L24.7353 36.0412ZM25.301 38.1061C25.301 38.8581 25.106 39.5448 24.715 40.1748L25.3918 40.5949C25.862 39.8373 26.0976 39.0049 26.0976 38.1061H25.301ZM24.7124 40.1791C24.3326 40.8084 23.8144 41.2893 23.1504 41.6267L23.5113 42.3368C24.3067 41.9326 24.9368 41.3489 25.3944 40.5906L24.7124 40.1791ZM23.15 41.6269C22.5841 41.9152 21.8895 42.068 21.0521 42.068V42.8645C21.9851 42.8645 22.8096 42.6943 23.5116 42.3367L23.15 41.6269ZM21.0521 42.068H16.692V42.8645H21.0521V42.068ZM16.2937 42.4662V46.2522H17.0902V42.4662H16.2937ZM16.692 42.2006H21.0521V41.4041H16.692V42.2006ZM21.0521 42.2006C21.8553 42.2006 22.5485 42.0757 23.1107 41.8015L22.7615 41.0855C22.3428 41.2898 21.78 41.4041 21.0521 41.4041V42.2006ZM23.106 41.8037C23.8087 41.4723 24.3741 40.9728 24.7967 40.3125L24.1258 39.8831C23.7828 40.4189 23.3315 40.8166 22.7662 41.0833L23.106 41.8037ZM24.7967 40.3125C25.2217 39.6484 25.4337 38.9097 25.4337 38.1061H24.6371C24.6371 38.7619 24.4664 39.3509 24.1258 39.8831L24.7967 40.3125ZM25.4337 38.1061C25.4337 37.3132 25.221 36.5806 24.7967 35.9177L24.1258 36.3471C24.4671 36.8804 24.6371 37.4636 24.6371 38.1061H25.4337ZM24.7967 35.9177C24.3729 35.2555 23.8001 34.7561 23.0855 34.4252L22.7508 35.1481C23.3281 35.4153 23.784 35.8131 24.1258 36.3471L24.7967 35.9177ZM23.0928 34.4287C22.5313 34.1548 21.8445 34.0295 21.0521 34.0295V34.8261C21.7669 34.8261 22.3241 34.94 22.7435 35.1446L23.0928 34.4287ZM21.0521 34.0295H16.692V34.8261H21.0521V34.0295ZM16.2937 34.4278V41.8024H17.0902V34.4278H16.2937ZM47.558 33.7639H47.9563V33.3656H47.558V33.7639ZM47.558 34.4278V34.8261H47.9563V34.4278H47.558ZM43.8259 34.4278V34.0295H43.4276V34.4278H43.8259ZM43.8259 45.5883H43.4276V45.9866H43.8259V45.5883ZM47.558 45.5883H47.9563V45.19H47.558V45.5883ZM47.558 46.2522V46.6505H47.9563V46.2522H47.558ZM39.4657 46.2522H39.0674V46.6505H39.4657V46.2522ZM39.4657 45.5883V45.19H39.0674V45.5883H39.4657ZM43.1799 45.5883V45.9866H43.5782V45.5883H43.1799ZM43.1799 34.4278H43.5782V34.0295H43.1799V34.4278ZM39.4657 34.4278H39.0674V34.8261H39.4657V34.4278ZM39.4657 33.7639V33.3656H39.0674V33.7639H39.4657ZM47.1597 33.7639V34.4278H47.9563V33.7639H47.1597ZM47.558 34.0295H43.8259V34.8261H47.558V34.0295ZM43.4276 34.4278V45.5883H44.2242V34.4278H43.4276ZM43.8259 45.9866H47.558V45.19H43.8259V45.9866ZM47.1597 45.5883V46.2522H47.9563V45.5883H47.1597ZM47.558 45.8539H39.4657V46.6505H47.558V45.8539ZM39.864 46.2522V45.5883H39.0674V46.2522H39.864ZM39.4657 45.9866H43.1799V45.19H39.4657V45.9866ZM43.5782 45.5883V34.4278H42.7816V45.5883H43.5782ZM43.1799 34.0295H39.4657V34.8261H43.1799V34.0295ZM39.864 34.4278V33.7639H39.0674V34.4278H39.864ZM39.4657 34.1622H47.558V33.3656H39.4657V34.1622ZM66.4023 40.0081L66.7183 40.2505L66.9043 40.0081L66.7183 39.7656L66.4023 40.0081ZM61.6115 33.7639V33.3656H60.8039L61.2955 34.0064L61.6115 33.7639ZM62.4728 33.7639L62.7889 33.5216L62.6693 33.3656H62.4728V33.7639ZM66.8329 39.4518L66.5168 39.6941L66.8322 40.1057L67.1485 39.6948L66.8329 39.4518ZM71.211 33.7639V33.3656H71.0149L70.8953 33.521L71.211 33.7639ZM72.0543 33.7639L72.3703 34.0064L72.8619 33.3656H72.0543V33.7639ZM67.2635 40.0081L66.9475 39.7656L66.7615 40.0081L66.9475 40.2505L67.2635 40.0081ZM72.0543 46.2522V46.6505H72.8619L72.3703 46.0098L72.0543 46.2522ZM71.211 46.2522L70.8953 46.4951L71.0149 46.6505H71.211V46.2522ZM66.8329 40.5643L67.1485 40.3214L66.8322 39.9105L66.5168 40.322L66.8329 40.5643ZM62.4728 46.2522V46.6505H62.6693L62.7889 46.4945L62.4728 46.2522ZM61.6115 46.2522L61.2955 46.0098L60.8039 46.6505H61.6115V46.2522ZM66.7183 39.7656L61.9275 33.5215L61.2955 34.0064L66.0863 40.2505L66.7183 39.7656ZM61.6115 34.1622H62.4728V33.3656H61.6115V34.1622ZM62.1567 34.0062L66.5168 39.6941L67.149 39.2095L62.7889 33.5216L62.1567 34.0062ZM67.1485 39.6948L71.5266 34.0069L70.8953 33.521L66.5173 39.2089L67.1485 39.6948ZM71.211 34.1622H72.0543V33.3656H71.211V34.1622ZM71.7383 33.5215L66.9475 39.7656L67.5795 40.2505L72.3703 34.0064L71.7383 33.5215ZM66.9475 40.2505L71.7383 46.4946L72.3703 46.0098L67.5795 39.7656L66.9475 40.2505ZM72.0543 45.8539H71.211V46.6505H72.0543V45.8539ZM71.5266 46.0093L67.1485 40.3214L66.5173 40.8072L70.8953 46.4951L71.5266 46.0093ZM66.5168 40.322L62.1567 46.0099L62.7889 46.4945L67.149 40.8066L66.5168 40.322ZM62.4728 45.8539H61.6115V46.6505H62.4728V45.8539ZM61.9275 46.4946L66.7183 40.2505L66.0863 39.7656L61.2955 46.0098L61.9275 46.4946ZM85.8566 33.7639V33.3656H85.4583V33.7639H85.8566ZM94.6486 33.7639H95.0469V33.3656H94.6486V33.7639ZM94.6486 34.4278V34.8261H95.0469V34.4278H94.6486ZM86.5205 34.4278V34.0295H86.1222V34.4278H86.5205ZM86.5205 39.4877H86.1222V39.886H86.5205V39.4877ZM93.59 39.4877H93.9883V39.0894H93.59V39.4877ZM93.59 40.1516V40.5499H93.9883V40.1516H93.59ZM86.5205 40.1516V39.7533H86.1222V40.1516H86.5205ZM86.5205 45.5883H86.1222V45.9866H86.5205V45.5883ZM94.6486 45.5883H95.0469V45.19H94.6486V45.5883ZM94.6486 46.2522V46.6505H95.0469V46.2522H94.6486ZM85.8566 46.2522H85.4583V46.6505H85.8566V46.2522ZM85.8566 34.1622H94.6486V33.3656H85.8566V34.1622ZM94.2503 33.7639V34.4278H95.0469V33.7639H94.2503ZM94.6486 34.0295H86.5205V34.8261H94.6486V34.0295ZM86.1222 34.4278V39.4877H86.9188V34.4278H86.1222ZM86.5205 39.886H93.59V39.0894H86.5205V39.886ZM93.1917 39.4877V40.1516H93.9883V39.4877H93.1917ZM93.59 39.7533H86.5205V40.5499H93.59V39.7533ZM86.1222 40.1516V45.5883H86.9188V40.1516H86.1222ZM86.5205 45.9866H94.6486V45.19H86.5205V45.9866ZM94.2503 45.5883V46.2522H95.0469V45.5883H94.2503ZM94.6486 45.8539H85.8566V46.6505H94.6486V45.8539ZM86.2549 46.2522V33.7639H85.4583V46.2522H86.2549ZM109.635 46.2522H109.237V46.6505H109.635V46.2522ZM109.635 33.7639V33.3656H109.237V33.7639H109.635ZM110.299 33.7639H110.697V33.3656H110.299V33.7639ZM110.299 45.5883H109.901V45.9866H110.299V45.5883ZM119.001 45.5883H119.4V45.19H119.001V45.5883ZM119.001 46.2522V46.6505H119.4V46.2522H119.001ZM110.033 46.2522V33.7639H109.237V46.2522H110.033ZM109.635 34.1622H110.299V33.3656H109.635V34.1622ZM109.901 33.7639V45.5883H110.697V33.7639H109.901ZM110.299 45.9866H119.001V45.19H110.299V45.9866ZM118.603 45.5883V46.2522H119.4V45.5883H118.603ZM119.001 45.8539H109.635V46.6505H119.001V45.8539ZM137.092 40.2772L137.171 39.8868L137.17 39.8867L137.092 40.2772ZM134.598 39.6133L134.451 39.9837L134.46 39.9868L134.598 39.6133ZM133.091 38.6085L132.785 38.8636L132.793 38.8726L133.091 38.6085ZM133.091 35.1276L132.765 34.8982L132.762 34.9032L133.091 35.1276ZM134.634 33.9075L134.477 33.5414L134.475 33.5424L134.634 33.9075ZM139.245 34.0151L139.062 34.369L139.07 34.3726L139.245 34.0151ZM140.914 35.4864L141.249 35.2714L140.914 35.4864ZM141.524 37.6575V38.0558H141.922V37.6575H141.524ZM140.86 37.6575H140.462V38.0558H140.86V37.6575ZM140.34 35.7915L140.674 35.5757L140.34 35.7915ZM138.922 34.5534L138.744 34.9097L138.75 34.9125L138.922 34.5534ZM135.118 34.4099L134.983 34.0353L135.118 34.4099ZM133.737 35.3429L133.434 35.0837L133.43 35.0888L133.737 35.3429ZM133.719 38.3035L133.432 38.5802L133.437 38.5851L133.719 38.3035ZM135.029 39.075L134.903 39.4529L135.029 39.075ZM137.289 39.6492L137.208 40.039L137.209 40.0392L137.289 39.6492ZM139.568 40.2413L139.435 40.6167L139.445 40.62L139.568 40.2413ZM140.95 41.1564L140.648 41.4163L140.652 41.421L140.95 41.1564ZM140.896 44.9424L140.582 44.6978L140.581 44.6988L140.896 44.9424ZM139.263 46.1266L139.407 46.4982L139.263 46.1266ZM132.678 44.4041L132.333 44.6037L132.338 44.6108L132.678 44.4041ZM132.086 42.0715V41.6732H131.688V42.0715H132.086ZM132.75 42.0715H133.148V41.6732H132.75V42.0715ZM133.252 44.0811L132.908 44.2818L132.911 44.2871L133.252 44.0811ZM134.742 45.4268L134.563 45.7831L134.569 45.7857L134.742 45.4268ZM139.766 45.1039L139.533 44.7808L139.53 44.7827L139.766 45.1039ZM140.394 41.5153L140.102 41.7863L140.394 41.5153ZM139.209 40.7976L139.083 41.1756L139.095 41.179L139.209 40.7976ZM137.17 39.8867C136.165 39.6856 135.356 39.4692 134.736 39.2398L134.46 39.9868C135.132 40.236 135.986 40.4621 137.014 40.6678L137.17 39.8867ZM134.745 39.243C134.156 39.0099 133.71 38.7071 133.389 38.3444L132.793 38.8726C133.213 39.3472 133.772 39.7143 134.451 39.9836L134.745 39.243ZM133.397 38.3535C133.109 38.0078 132.951 37.5534 132.951 36.9578H132.154C132.154 37.7018 132.355 38.348 132.785 38.8635L133.397 38.3535ZM132.951 36.9578C132.951 36.3365 133.11 35.8062 133.42 35.352L132.762 34.9032C132.354 35.5016 132.154 36.1914 132.154 36.9578H132.951ZM133.416 35.357C133.741 34.8969 134.194 34.5339 134.793 34.2725L134.475 33.5424C133.758 33.8552 133.183 34.3056 132.765 34.8982L133.416 35.357ZM134.791 34.2736C135.402 34.0115 136.119 33.8751 136.949 33.8751V33.0785C136.032 33.0785 135.205 33.2293 134.477 33.5414L134.791 34.2736ZM136.949 33.8751C137.727 33.8751 138.429 34.0414 139.062 34.3689L139.428 33.6614C138.674 33.2712 137.845 33.0785 136.949 33.0785V33.8751ZM139.07 34.3726C139.713 34.6889 140.213 35.1314 140.579 35.7015L141.249 35.2714C140.801 34.5735 140.189 34.0351 139.421 33.6577L139.07 34.3726ZM140.579 35.7015C140.941 36.2662 141.126 36.914 141.126 37.6575H141.922C141.922 36.7742 141.7 35.9747 141.249 35.2714L140.579 35.7015ZM141.524 37.2592H140.86V38.0558H141.524V37.2592ZM141.258 37.6575C141.258 36.8834 141.067 36.1848 140.674 35.5757L140.005 36.0072C140.306 36.4747 140.462 37.0202 140.462 37.6575H141.258ZM140.674 35.5757C140.286 34.9733 139.757 34.5121 139.095 34.1943L138.75 34.9125C139.284 35.1689 139.699 35.5331 140.005 36.0072L140.674 35.5757ZM139.1 34.1972C138.442 33.868 137.716 33.7065 136.931 33.7065V34.5031C137.604 34.5031 138.206 34.6407 138.744 34.9097L139.1 34.1972ZM136.931 33.7065C136.242 33.7065 135.592 33.815 134.983 34.0353L135.254 34.7844C135.769 34.598 136.327 34.5031 136.931 34.5031V33.7065ZM134.983 34.0353C134.362 34.26 133.842 34.6085 133.434 35.0837L134.039 35.6021C134.35 35.24 134.751 34.9664 135.254 34.7844L134.983 34.0353ZM133.43 35.0888C133.014 35.5904 132.818 36.2113 132.818 36.9219H133.615C133.615 36.3645 133.765 35.9327 134.043 35.597L133.43 35.0888ZM132.818 36.9219C132.818 37.5783 133.012 38.1451 133.432 38.5801L134.005 38.0268C133.755 37.768 133.615 37.4138 133.615 36.9219H132.818ZM133.437 38.5851C133.824 38.9716 134.317 39.2577 134.903 39.4529L135.155 38.6972C134.663 38.5335 134.284 38.3052 134 38.0218L133.437 38.5851ZM134.903 39.4529C135.462 39.6394 136.233 39.8344 137.208 40.039L137.371 39.2594C136.408 39.0573 135.672 38.8695 135.155 38.6972L134.903 39.4529ZM137.209 40.0392C138.183 40.2412 138.922 40.4342 139.435 40.6166L139.702 39.866C139.138 39.6657 138.358 39.4639 137.37 39.2592L137.209 40.0392ZM139.445 40.62C139.927 40.7773 140.326 41.0419 140.648 41.4163L141.252 40.8965C140.832 40.4097 140.31 40.0642 139.692 39.8627L139.445 40.62ZM140.652 41.421C140.95 41.7565 141.126 42.2542 141.126 42.9686H141.922C141.922 42.128 141.715 41.4175 141.247 40.8918L140.652 41.421ZM141.126 42.9686C141.126 43.6706 140.938 44.2391 140.582 44.6978L141.21 45.1869C141.691 44.5691 141.922 43.8217 141.922 42.9686H141.126ZM140.581 44.6988C140.223 45.162 139.741 45.5154 139.12 45.755L139.407 46.4982C140.149 46.2115 140.756 45.7754 141.211 45.1859L140.581 44.6988ZM139.12 45.755C138.488 45.9989 137.795 46.1231 137.038 46.1231V46.9196C137.884 46.9196 138.675 46.7806 139.407 46.4982L139.12 45.755ZM137.038 46.1231C136.095 46.1231 135.284 45.9472 134.594 45.6077L134.243 46.3225C135.06 46.7247 135.995 46.9196 137.038 46.9196V46.1231ZM134.594 45.6077C133.904 45.2679 133.383 44.7977 133.019 44.1974L132.338 44.6108C132.787 45.3502 133.426 45.9207 134.243 46.3225L134.594 45.6077ZM133.023 44.2045C132.667 43.5897 132.484 42.8824 132.484 42.0715H131.688C131.688 43.007 131.9 43.8548 132.333 44.6036L133.023 44.2045ZM132.086 42.4698H132.75V41.6732H132.086V42.4698ZM132.352 42.0715C132.352 42.8967 132.533 43.638 132.908 44.2818L133.596 43.8804C133.302 43.3759 133.148 42.7774 133.148 42.0715H132.352ZM132.911 44.2871C133.3 44.9307 133.855 45.4291 134.563 45.7831L134.92 45.0706C134.336 44.7786 133.898 44.3799 133.593 43.8751L132.911 44.2871ZM134.569 45.7857C135.28 46.128 136.107 46.2916 137.038 46.2916V45.495C136.199 45.495 135.495 45.3477 134.914 45.068L134.569 45.7857ZM137.038 46.2916C138.203 46.2916 139.2 46.0123 140.001 45.425L139.53 44.7827C138.895 45.2481 138.074 45.495 137.038 45.495V46.2916ZM139.999 45.4269C140.833 44.8248 141.258 43.9862 141.258 42.9507H140.462C140.462 43.7334 140.157 44.3303 139.533 44.7808L139.999 45.4269ZM141.258 42.9507C141.258 42.2649 141.086 41.676 140.685 41.2442L140.102 41.7863C140.323 42.0244 140.462 42.3924 140.462 42.9507H141.258ZM140.685 41.2443C140.322 40.8526 139.864 40.578 139.324 40.4161L139.095 41.179C139.512 41.3042 139.843 41.5081 140.102 41.7863L140.685 41.2443ZM139.335 40.4197C138.845 40.2563 138.12 40.079 137.171 39.8868L137.013 40.6676C137.954 40.8582 138.641 41.0278 139.083 41.1754L139.335 40.4197Z" fill="white"/>
<rect x="2.38937" y="1" width="153.611" height="55.6593" stroke="white" stroke-width="2"/>
</svg>
